<?xml version="1.0" encoding="utf-8"?>
<!-- Generator: Adobe Illustrator 16.0.0, SVG Export Plug-In . SVG Version: 6.00 Build 0)  -->
<!DOCTYPE svg PUBLIC "-//W3C//DTD SVG 1.1//EN" "http://www.w3.org/Graphics/SVG/1.1/DTD/svg11.dtd">
<svg version="1.1" id="Calque_1" xmlns="http://www.w3.org/2000/svg" xmlns:xlink="http://www.w3.org/1999/xlink" x="0px" y="0px"
	 width="843.25px" height="123.45px" viewBox="0 0 843.25 123.45" enable-background="new 0 0 843.25 123.45" xml:space="preserve">
<symbol  id="Symbole_1" viewBox="-3.573 -113.743 778.462 121.453">
	<g>
		<path fill="#1A2C18" d="M200.678-33.891c0-5.184,0-21.119-18.334-21.119c0,0-21.022-0.096-26.494-0.096
			c0-13.343,0-26.878,0-26.878c0.192-4.607-7.295-4.704-7.007,0v60.572c0,4.224,3.359,7.68,7.583,7.68l25.918,0.096
			C198.47-13.637,200.678-23.332,200.678-33.891z M193.67-33.891c0,10.655-2.208,13.247-11.327,13.247l-25.918-0.096
			c-0.288,0-0.576-0.288-0.576-0.672c0,0,0-13.535,0-26.686c7.872,0,26.494,0.096,26.494,0.096
			C190.695-48.002,193.67-44.354,193.67-33.891z"/>
		<path fill="#1A2C18" d="M261.062-34.179c0-4.8-0.096-18.526-14.495-20.639l10.367-25.822c1.728-4.224-5.28-6.815-6.624-2.4
			l-11.135,27.934c-6.144,0-18.911,0-23.039,0c0-13.055,0-26.878,0-26.878c0.288-4.416-7.295-4.511-7.007,0V-21.7
			c0,4.224,3.36,7.68,7.583,7.68l25.918,0.096C258.758-13.925,261.062-23.62,261.062-34.179z M253.958-34.179
			c0,10.655-2.208,13.247-11.327,13.247l-25.918-0.096c-0.288,0-0.576-0.288-0.576-0.672c0,0,0-13.535,0-26.686
			c7.872,0,26.494,0.096,26.494,0.096C250.982-48.29,253.958-44.643,253.958-34.179z"/>
		<path fill="#1A2C18" d="M323.653-18.437c2.88-2.879,4.224-7.007,4.224-12.479l-0.192-35.997c0-5.856-1.536-10.175-4.607-13.247
			c-5.28-5.184-13.631-5.184-22.462-5.088h-0.672c-10.175,0.096-27.262,0.192-27.166,19.775l0.192,33.693
			c0,5.952,1.536,10.271,4.607,13.343c5.28,5.184,13.439,5.088,22.079,5.088h2.784C310.79-13.445,318.661-13.445,323.653-18.437z
			 M320.869-30.916c0,3.552-0.768,6.048-2.208,7.583c-2.976,2.88-9.407,2.88-16.319,2.88h-2.688
			c-7.2,0.096-13.919,0.096-17.087-2.976c-1.728-1.728-2.592-4.416-2.592-8.352l-0.192-33.693c0-10.848,5.952-12.671,20.159-12.767
			h0.768c7.295,0,14.207-0.096,17.375,3.072c1.728,1.632,2.592,4.416,2.592,8.351L320.869-30.916z"/>
		<path fill="#1A2C18" d="M386.244-85.248H360.23c-7.296,0-18.431,0-18.431,16.511v52.125c-0.192,4.512,7.295,4.607,7.007,0v-52.125
			c0-9.407,3.647-9.407,11.423-9.407h26.014C390.852-77.952,390.852-85.439,386.244-85.248z"/>
		<path fill="#1A2C18" d="M444.708-18.82c4.416-4.32,6.624-11.135,6.624-20.734V-82.08c0.192-4.608-7.295-4.608-7.104,0v23.806
			h-39.549V-82.08c0.288-4.608-7.295-4.704-7.007,0v41.469c0,27.454,20.542,27.55,28.318,27.646
			C431.941-12.965,439.428-13.541,444.708-18.82z M444.228-51.842v12.287c0,7.487-1.44,12.767-4.416,15.743
			c-2.784,2.688-6.912,3.84-13.823,3.84c-13.151-0.096-21.311-3.648-21.311-20.639v-11.231H444.228z"/>
		<path fill="#1A2C18" d="M515.748-64.513c0-6.24-0.768-12.191-4.512-16.127c-2.592-2.592-6.144-3.936-10.56-3.936l-27.454-0.096
			c-4.032-0.192-7.775,3.552-7.583,7.583v55.004c0,4.224,3.36,7.679,7.583,7.679l24.958,0.096c6.527,0,10.175-3.168,12.095-5.855
			c2.496-3.264,3.36-7.487,3.36-11.519c0-5.952-1.344-10.655-6.048-14.879C514.691-49.346,515.748-55.97,515.748-64.513z
			 M472.646-44.354c0.288,0,21.214,0,23.519,0c3.647,0,8.063,1.728,9.407,5.952c1.344,4.416,1.728,10.463-0.96,14.111
			c-1.44,2.016-3.552,2.88-6.432,2.88l-24.862-0.096c-0.384,0-0.672-0.288-0.672-0.576
			C472.646-22.084,472.646-33.795,472.646-44.354z M508.644-60.481c0,7.008-2.688,9.503-10.943,9.503c-4.608,0-20.351,0-25.054,0
			c0-12.959,0-26.11,0-26.11c0-0.192,0.096-0.288,0.192-0.384c0.096-0.096,0.192-0.192,0.384-0.192l27.454,0.096
			c2.496,0,4.224,0.576,5.472,1.824C509.124-72.672,508.836-65.185,508.644-60.481z"/>
		<path fill="#1A2C18" d="M621.348-85.248h-26.015c-7.295,0-18.431,0-18.431,16.511v52.125c-0.192,4.512,7.296,4.607,7.008,0
			v-52.125c0-9.407,3.647-9.407,11.423-9.407h26.015C625.955-77.952,625.955-85.439,621.348-85.248z"/>
		<path fill="#1A2C18" d="M639.782-16.517V-82.08c0.288-4.512-7.296-4.416-7.008,0v65.563
			C632.774-12.005,639.494-11.909,639.782-16.517z"/>
		<path fill="#1A2C18" d="M700.259-51.362c3.168-3.264,4.704-7.775,4.607-13.919c0-5.952-1.92-10.751-5.567-14.111
			c-7.967-7.391-22.366-6.431-33.981-5.567l-8.64,0.384c-4.607-0.096-4.607,7.488,0,7.104l9.12-0.384
			c10.271-0.672,22.942-1.536,28.606,3.648c2.208,2.112,3.359,4.991,3.359,9.023c0,4.128-0.768,7.008-2.592,8.735
			c-3.264,3.264-10.271,3.168-17.086,3.072c-8.448-0.096-17.087-0.192-22.654,5.376c-3.36,3.359-4.896,8.063-4.896,14.495
			c0.096,5.28,1.728,9.503,5.088,12.671c7.871,7.391,22.654,6.624,34.653,5.951l7.2-0.288c4.607,0.192,4.607-7.488-0.096-7.104
			l-7.487,0.288c-9.983,0.48-23.71,1.152-29.374-4.128c-1.824-1.728-2.784-4.224-2.784-7.392c-0.096-4.416,0.864-7.487,2.688-9.407
			c3.456-3.456,10.655-3.36,17.566-3.264C686.244-46.082,694.787-45.986,700.259-51.362z"/>
	</g>
	<g id="Dossier_des_éléments_dupliqués_x2F_Symbole_5_2_">
		<g id="Calque_3_2_">
			<path fill-rule="evenodd" clip-rule="evenodd" fill="#4D8449" d="M22.543-75.425c1.114,0,2.218,0,3.311,0
				c1.892,0,3.784,0,5.676,0c0.062,0.146,0.121,0.304,0.177,0.473c0.236,0.196,0.473,0.373,0.709,0.53
				c0.272,0.158,0.548,0.315,0.827,0.472c0.137,0.085,0.275,0.173,0.414,0.266c0.06,0.024,0.119,0.055,0.177,0.089
				c0.237,0.118,0.473,0.235,0.709,0.354c0.708,0,1.417,0.01,2.128,0.029c0.086-0.003,0.175-0.003,0.266,0
				c5.509,0.143,10.78,0.781,15.814,1.916c0.866,0,1.733,0,2.602,0c0.591,0,1.182,0,1.773,0c0.035-0.011,0.064-0.021,0.089-0.029
				c0.15,0.216,0.278,0.441,0.384,0.679c0.122,0.243,0.24,0.489,0.355,0.737l36.032,5.602L57.955-69.91
				c0.043,0.066,0.083,0.135,0.118,0.206c0.158,0.275,0.316,0.551,0.473,0.825c0.04,0.079,0.098,0.157,0.177,0.236
				c0.197,0.235,0.434,0.452,0.71,0.648c0.197,0.157,0.413,0.275,0.65,0.354c0.453,0.236-3.695-0.452-12.444-2.063
				c6.027,1.26,10.57,2.204,13.626,2.83c0.525,0.107,1.008,0.205,1.449,0.295c0.605,0.125,1.127,0.233,1.566,0.325
				c0.94,0.176,1.492,0.274,1.656,0.295c0.353,0.048,0.718,0.097,1.093,0.147l0.148,0.029c2.72,0.491,5.084,0.933,7.094,1.326
				c2.68,0.504,4.729,0.916,6.148,1.238c1.053,0,2.097,0,3.133,0c0.314,0,0.629,0,0.946,0c0.131-0.065-2.027-0.409-6.474-1.032
				c0.324,0.122,0.649,0.24,0.976,0.354l4.552,0.678L79-63.896c0.45,0.168,0.903,0.335,1.36,0.501c0.039,0,0.06,0.059,0.06,0.177
				l-1.656-0.708l-0.798-0.324c-1.094-0.152-2.326-0.32-3.695-0.501c-1.395-0.201-2.931-0.418-4.611-0.648L66.527-65.9
				c0.608,0.07,1.199,0.139,1.774,0.206c0.462,0.05,0.916,0.099,1.359,0.147c1.663,0.176,3.201,0.333,4.611,0.472
				c7.687,0.799,11.628,1.144,11.823,1.032c0.15-0.09,0.298-0.188,0.443-0.295c0.913,0,1.829,0,2.75,0
				c0.162-0.054,0.32-0.122,0.473-0.207c0.041,0.199,0.099,0.387,0.177,0.561c0.354,0.904,1.005,1.337,1.951,1.298v0.118
				c0.355-0.157,0.67-0.354,0.946-0.59c0.419-0.343,0.803-0.726,1.152-1.15l1.153,1.18c0.693,0.699,1.373,1.348,2.04,1.945
				c0.065,0.072,0.134,0.141,0.207,0.207c0.153,0.139,0.33,0.119,0.532-0.06l-0.739-0.147l0.739,0.147
				c0.415-0.344,0.937-1.307,1.567-2.89c0.069-0.036,0.138-0.075,0.207-0.117c0.395-0.236,0.769-0.531,1.124-0.885
				c0.197-0.314,0.374-0.668,0.532-1.062c0.079-0.274,0.118-0.59,0.118-0.943c0-0.669,0-1.356,0-2.063c0-0.236,0-0.491,0-0.767
				c0.237-0.157,0.473-0.354,0.709-0.59c0.197-0.314,0.375-0.669,0.532-1.062c0.079-0.275,0.119-0.59,0.119-0.943
				c0-0.354,0-0.688,0-1.003c0.355-0.354,0.69-0.688,1.005-1.002c0.354-0.354,0.67-0.728,0.946-1.121
				c0.158-0.275,0.295-0.59,0.414-0.943c0.039-0.078,0.079-0.177,0.118-0.295c0.315-0.039,0.63-0.059,0.946-0.059
				c0.434,0,0.887,0,1.36,0c0.67-0.354,1.32-0.747,1.951-1.18c0.315-0.196,0.63-0.413,0.945-0.648
				c1.143-0.787,2.089-1.749,2.838-2.89c0.355-0.982,0.513-2.005,0.473-3.066c-0.079-1.062-0.118-2.123-0.118-3.185
				c0-0.274,0-0.569,0-0.884c0-0.118,0-0.217,0-0.295c0.118,0,0.236-0.02,0.354-0.06c0.118,0,0.217,0,0.295,0
				c0.591-0.196,1.143-0.452,1.655-0.767c0.907-5.032,0.178-9.042-2.187-12.029c2.365,2.987,3.094,6.997,2.187,12.029
				c0.394-0.275,0.749-0.57,1.064-0.885c0.236-0.354,0.394-0.707,0.473-1.061c0.157-0.669,0.236-1.337,0.236-2.006
				c0-1.021-0.039-2.044-0.118-3.065c-0.04-0.315-0.118-0.649-0.237-1.003c-0.749-1.141-1.635-2.182-2.66-3.125
				c-0.315-0.315-0.63-0.61-0.946-0.885c-0.276-0.275-0.552-0.531-0.828-0.767c-0.591-0.551-1.202-1.12-1.833-1.71
				c-0.079-0.079-0.158-0.157-0.237-0.236c-0.197-0.157-0.414-0.295-0.65-0.413c-0.048,0-0.087-0.01-0.119-0.029
				c-0.024-0.004-0.044-0.014-0.059-0.029c-0.394-0.079-0.788-0.118-1.183-0.118c-1.34-0.078-2.68-0.118-4.02-0.118
				c-0.039,0-0.078,0-0.118,0c-0.118-0.078-0.236-0.177-0.354-0.295c-0.276-0.274-0.572-0.53-0.887-0.767
				c-11.271-0.157-22.524-0.313-33.756-0.471c-1.892-0.826-3.882-1.436-5.971-1.828l-10.877-0.178
				c-0.118,0.04-0.236,0.079-0.355,0.118c-0.315,0.354-0.611,0.728-0.887,1.121c-0.118,0.157-0.216,0.314-0.295,0.472
				c-5.597-0.079-11.193-0.157-16.789-0.236c-0.552-0.235-1.124-0.452-1.715-0.648c-4.059,0-8.139,0-12.237,0
				c-0.67,0.196-1.301,0.472-1.892,0.825c-0.434,0.236-0.808,0.512-1.123,0.825c-0.236,0.236-0.434,0.335-0.591,0.295
				c-4.02-0.786-7.429-0.235-10.228,1.651c-0.631,0.63-1.222,1.278-1.773,1.946c0,0.274,0.059,0.53,0.177,0.767l-0.06,0.059
				c-0.394,0.157-0.769,0.394-1.123,0.708c-0.119,0.354-0.177,0.708-0.177,1.062c-0.119,2.005-0.178,4.029-0.178,6.073
				c0,0.354,0,0.688,0,1.003c0,0.354,0,0.688,0,1.003c0,1.021,0,2.044,0,3.066c0,0.668,0,1.355,0,2.063
				c0,0.314,0.079,0.609,0.237,0.885c0.197,0.433,0.473,0.806,0.828,1.12c0.311,0.355,0.537,0.709,0.679,1.062
				c0.151,0.351-0.47,0.793-1.862,1.327c-1.396,0.535,0.456,1.665,5.557,3.391h0.06h0.059c0.197,0.117,0.394,0.216,0.591,0.295
				c0.552,0.235,1.104,0.491,1.655,0.767c0.355,0.196,0.709,0.413,1.064,0.648c0.434,0.079,0.887,0.118,1.36,0.118
				c3.113,0,5.733,0.472,7.863,1.415c0.078,0.041,0.156,0.08,0.236,0.117C22.184-75.425,22.361-75.425,22.543-75.425l-0.768-0.117
				L22.543-75.425z M111.161-104.26c-0.336-0.224-0.671-0.45-1.005-0.679C110.49-104.71,110.825-104.483,111.161-104.26z
				 M33.657-73.685l3.015,0.472L33.657-73.685z M6.818-104.319c-0.434,0.315-0.847,0.649-1.242,1.003
				c-0.236,0.196-0.414,0.472-0.532,0.825c0,0.039,0,0.079,0,0.118C5.596-103.041,6.187-103.689,6.818-104.319z M52.93-108.742
				l10.877,0.178c-0.394-0.079-0.768-0.138-1.123-0.178c-2.641-0.354-5.321-0.53-8.041-0.53
				C54.053-109.115,53.481-108.938,52.93-108.742z M66.527-65.9l-0.591-0.059L66.527-65.9c0.167,0.033,0.334,0.063,0.502,0.089
				C66.861-65.838,66.694-65.867,66.527-65.9z M69.66-65.399h-0.06c-0.443-0.073-0.876-0.143-1.3-0.206
				c-0.382-0.062-0.757-0.121-1.124-0.177c0.367,0.056,0.741,0.115,1.124,0.177c0.423,0.063,0.857,0.133,1.3,0.206H69.66z
				 M69.601-65.399l9.164,1.474L69.601-65.399z"/>
			<g>
				<path fill="#4D8449" d="M15.216-113.743L14-113.559C3.353-110.261-8.031-101.5-1.801-78.504c0.278,1.029,0.92,1.859,1.746,2.393
					c0.87,1.687,2.817,2.595,4.713,2.077c2.187-0.595,3.479-2.862,2.886-5.062C5.232-87.671,5.668-94.16,8.839-98.389
					c0.424-0.531,0.885-1.058,1.374-1.567c1.76-1.65,4.132-2.981,7.06-3.958l35.689,0.075c0.001,0,0.003,0,0.004,0l10.777,0.021
					c0.003,0,0.007,0,0.011,0l36.063,0.075c3.242,0.43,5.874,1.214,7.823,2.329c0.271,0.181,0.544,0.358,0.816,0.536
					c0.245,0.174,0.473,0.344,0.681,0.512c0.067,0.094,0.133,0.184,0.199,0.27c0.272,0.354,0.589,0.65,0.938,0.889
					c1.267,1.6,1.821,3.729,1.675,6.464c-1.003,0.519-1.79,1.452-2.093,2.638c-0.102,0.4-0.204,0.781-0.307,1.143
					c-0.379,1.342-0.055,2.713,0.75,3.721c-0.354,1.014-0.764,2.064-1.229,3.154c-1.331,0.153-2.561,0.958-3.206,2.251
					c-0.971,1.949-2.109,4.011-3.385,6.132l-0.23,0.441L74.759-11.893l-0.362,1.755l0.173,12.206c0.02,1.438,0.77,2.696,1.89,3.418
					c0.694,1.339,2.095,2.246,3.698,2.223c2.265-0.032,4.075-1.906,4.042-4.186l-0.16-11.287l27.02-60.314
					c4.89-8.242,7.748-15.146,8.735-21.103c0-0.006,0.001-0.01,0.002-0.016c1.022-6.234-0.053-11.369-3.198-15.267
					c-0.002-0.004-0.006-0.008-0.008-0.012c-0.018-0.023-0.036-0.043-0.054-0.064c-0.38-0.455-0.796-0.908-1.239-1.353
					c-3.213-4.098-8.633-6.67-16.117-7.644l-0.517-0.033L15.216-113.743z"/>
			</g>
			<g>
				<path fill="#4D8449" d="M1.611-85.079c-0.695,0-1.4,0.173-2.048,0.537c-1.985,1.115-2.675,3.604,0.196,8.943L45.517,3.328
					c-0.606-1.43,1.921-0.75,3.907-1.865c1.985-1.115,2.675-3.604,1.542-5.558L5.208-83.024C4.445-84.341,3.048-85.079,1.611-85.079
					z"/>
			</g>
			<g>
				<path fill="#4D8449" d="M46.589-3.37c-0.835,0.075-1.512,0.873-1.575,1.933C44.98-0.854,45.137-0.3,45.419,0.13
					c-0.104,0.247-0.171,0.525-0.189,0.824c-0.071,1.195,0.665,2.271,1.644,2.403l32.147,4.328c0.978,0.131,1.83-0.731,1.901-1.927
					c0.035-0.582-0.122-1.136-0.405-1.566c0.105-0.247,0.171-0.524,0.189-0.823c0.071-1.196-0.665-2.271-1.645-2.404L46.916-3.363
					C46.805-3.378,46.696-3.38,46.589-3.37z"/>
			</g>
			<g>
				<path fill="#4D8449" d="M4.319-82.791c-0.629,0.036-1.136,0.845-1.172,1.938c-0.042,1.208,0.509,2.309,1.227,2.454l32.284,6.594
					c0.004,0,0.008,0.001,0.012,0l1.311,0.258l22.398,4.565c0,0,0.001-0.001,0.001-0.001l39.722,8.098l1.061,1.622
					c0.551,0.844,1.373,0.813,1.838-0.064c0.464-0.88,0.394-2.277-0.157-3.118l-1.384-2.117c-0.109-0.17-0.235-0.313-0.372-0.419
					c-0.001-0.002-0.002-0.001-0.003-0.003c-0.133-0.103-0.273-0.167-0.414-0.192l-40.142-8.182c-0.001,0-0.002,0-0.003-0.002
					l-22.401-4.567c-0.003,0.001-0.006,0-0.01,0l-4.667-0.945L4.521-82.777C4.453-82.789,4.385-82.795,4.319-82.791z"/>
			</g>
		</g>
	</g>
	<g>
		<path fill="#1A2C18" d="M743.357-17.747h-8.576c0-0.035,0-0.07,0-0.07v-22.122c0.105-1.645-2.625-1.61-2.555,0v22.122
			c0,0,0,0.035,0,0.07h-8.541c-1.715-0.105-1.68,2.66,0,2.555h19.672C745.002-15.087,745.037-17.852,743.357-17.747z"/>
		<path fill="#1A2C18" d="M772.198-18.552v-21.387c0.07-1.645-2.661-1.645-2.59,0v21.387c0,1.12-0.14,1.12-0.7,1.12l-0.875-0.035
			c-0.245,0-0.525-0.175-0.98-1.435l-4.025-10.361c-0.735-1.225-1.89-1.891-3.08-1.82c-1.155,0.035-2.135,0.77-2.695,1.995
			c-0.14,0.35-3.29,8.261-3.92,10.221c-0.49,1.4-0.84,1.4-0.98,1.4l-0.91,0.035c-0.56,0-0.7,0-0.7-1.12v-21.387
			c0.105-1.61-2.66-1.645-2.555,0v21.387c0,3.045,1.785,3.675,3.255,3.675h0.91c2.345,0,3.15-2.38,3.396-3.185
			c0.63-1.891,3.85-9.976,3.85-10.011c0.245-0.63,0.805-0.56,1.19,0.07c0.455,1.225,3.851,9.976,3.851,9.976
			c0.35,0.945,1.12,3.15,3.396,3.15h0.875C770.412-14.877,772.198-15.507,772.198-18.552z"/>
	</g>
</symbol>
<use xlink:href="#Symbole_1"  width="778.462" height="121.453" id="Logo" x="-3.573" y="-113.743" transform="matrix(1 0 0 -1 34.1499 7.7002)" overflow="visible"/>
<g>
</g>
<g>
</g>
<g>
</g>
<g>
</g>
</svg>
